<svg width="740" height="649" viewBox="0 0 740 649" fill="none" xmlns="http://www.w3.org/2000/svg">
<path d="M576.585 489.976L394.669 596L189.815 476.333L371.732 370.334L576.585 489.976Z" fill="#43649F"/>
<path opacity="0.5" d="M576.585 489.976L394.669 596L189.815 476.333L371.732 370.334L576.585 489.976Z" fill="black"/>
<path d="M371.732 226.619V370.334L189.815 476.333V332.644L371.732 226.619Z" fill="#43649F"/>
<path opacity="0.23" d="M371.732 226.619V370.334L189.815 476.333V332.644L371.732 226.619Z" fill="black"/>
<path d="M394.669 452.286V596L189.815 476.333V332.644L394.669 452.286Z" fill="#43649F"/>
<path opacity="0.38" d="M394.669 452.286V596L189.815 476.333V332.644L394.669 452.286Z" fill="black"/>
<path d="M576.585 346.261V489.976L371.732 370.334V226.619L576.585 346.261Z" fill="#43649F"/>
<path opacity="0.4" d="M576.585 346.261V489.976L371.732 370.334V226.619L576.585 346.261Z" fill="black"/>
<path d="M576.585 489.976V346.261L394.669 452.286V596L576.585 489.976Z" fill="#43649F"/>
<path opacity="0.23" d="M576.585 489.976V346.261L394.669 452.286V596L576.585 489.976Z" fill="black"/>
<path d="M371.732 226.619L371.979 147.057L576.339 266.848L576.585 346.261L371.732 226.619Z" fill="#43649F"/>
<path opacity="0.2" d="M371.732 226.619L371.979 147.057L576.339 266.848L576.585 346.261L371.732 226.619Z" fill="black"/>
<path d="M394.669 452.286L411.736 382.681L592 277.628L576.585 346.261L394.669 452.286Z" fill="#43649F"/>
<path opacity="0.3" d="M394.669 452.286L411.736 382.681L592 277.628L576.585 346.261L394.669 452.286Z" fill="black"/>
<path d="M189.816 332.644L168.112 260.451L350.028 154.451L371.732 226.619L189.816 332.644Z" fill="#43649F"/>
<path opacity="0.1" d="M189.816 332.644L168.112 260.451L350.028 154.451L371.732 226.619L189.816 332.644Z" fill="black"/>
<path d="M189.815 332.644L147 272.972L351.878 392.614L394.669 452.286L189.815 332.644Z" fill="#43649F"/>
<path opacity="0.45" d="M189.815 332.644L147 272.972L351.878 392.614L394.669 452.286L189.815 332.644Z" fill="black"/>
<g opacity="0.7">
<path d="M448.237 553.257C447.941 553.257 447.656 553.14 447.444 552.93C447.232 552.721 447.109 552.436 447.103 552.136V526.844C447.109 526.542 447.231 526.255 447.442 526.041C447.654 525.828 447.939 525.705 448.237 525.699C448.534 525.705 448.816 525.829 449.024 526.043C449.231 526.257 449.347 526.544 449.347 526.844V552.136C449.347 552.434 449.23 552.719 449.022 552.929C448.814 553.139 448.532 553.257 448.237 553.257Z" fill="white"/>
<path d="M444.957 535.607C444.81 535.63 444.66 535.63 444.513 535.607C444.244 535.481 444.033 535.257 443.923 534.979C443.813 534.701 443.812 534.391 443.921 534.113L447.917 524.827L452.356 530.005C452.515 530.237 452.584 530.52 452.549 530.8C452.514 531.079 452.378 531.336 452.168 531.521C451.957 531.706 451.686 531.806 451.407 531.802C451.128 531.798 450.86 531.69 450.655 531.499L448.558 529.01L446.092 534.984C445.985 535.19 445.82 535.359 445.618 535.47C445.416 535.581 445.186 535.628 444.957 535.607Z" fill="white"/>
<path d="M458.571 547.307C458.275 547.3 457.993 547.177 457.785 546.963C457.578 546.749 457.461 546.461 457.462 546.162V520.894C457.462 520.597 457.578 520.312 457.787 520.102C457.995 519.892 458.277 519.774 458.571 519.774C458.866 519.774 459.148 519.892 459.356 520.102C459.564 520.312 459.681 520.597 459.681 520.894V546.137C459.685 546.287 459.658 546.437 459.604 546.577C459.55 546.717 459.47 546.845 459.366 546.954C459.263 547.063 459.14 547.15 459.004 547.21C458.867 547.271 458.72 547.304 458.571 547.307Z" fill="white"/>
<path d="M455.291 529.657C455.144 529.68 454.994 529.68 454.847 529.657C454.712 529.598 454.59 529.512 454.488 529.404C454.386 529.296 454.306 529.169 454.253 529.03C454.2 528.891 454.175 528.743 454.18 528.594C454.185 528.445 454.219 528.299 454.28 528.163L458.251 518.753L462.69 523.906C462.895 524.12 463.01 524.406 463.01 524.703C463.01 525 462.895 525.286 462.69 525.5C462.587 525.605 462.464 525.689 462.329 525.746C462.193 525.803 462.048 525.832 461.901 525.832C461.754 525.832 461.609 525.803 461.473 525.746C461.338 525.689 461.215 525.605 461.112 525.5L459.015 523.01L456.549 528.985C456.447 529.225 456.266 529.423 456.038 529.545C455.809 529.667 455.545 529.707 455.291 529.657Z" fill="white"/>
</g>
<g opacity="0.7">
<path d="M418.42 570.409C417.998 570.415 417.582 570.312 417.211 570.11C416.765 569.822 416.404 569.418 416.166 568.941C415.927 568.463 415.82 567.93 415.855 567.397V564.285C415.861 563.985 415.984 563.701 416.196 563.491C416.408 563.282 416.693 563.165 416.989 563.165C417.284 563.165 417.566 563.283 417.774 563.493C417.982 563.703 418.099 563.988 418.099 564.285V567.397C418.099 567.845 418.099 568.094 418.321 568.143C418.543 568.193 418.666 568.143 419.036 567.944C419.73 567.297 420.277 566.506 420.639 565.625C421.001 564.744 421.17 563.794 421.133 562.841V549.896C421.133 549.599 421.25 549.314 421.458 549.104C421.666 548.894 421.948 548.776 422.243 548.776C422.537 548.776 422.819 548.894 423.027 549.104C423.236 549.314 423.352 549.599 423.352 549.896V562.841C423.408 564.185 423.148 565.523 422.595 566.747C422.043 567.971 421.212 569.047 420.171 569.886C419.644 570.215 419.039 570.395 418.42 570.409Z" fill="white"/>
<path d="M406.655 559.978V558.036C406.949 553.051 408.392 548.203 410.872 543.881C413.351 539.558 416.798 535.881 420.935 533.142C424.98 530.802 428.828 530.454 431.787 532.196C433.366 533.289 434.624 534.789 435.431 536.541C436.239 538.293 436.564 540.231 436.375 542.154V542.801L406.655 559.978ZM427.644 533.242C425.669 533.333 423.75 533.933 422.07 534.984C418.524 537.339 415.522 540.437 413.266 544.066C411.011 547.696 409.555 551.773 408.998 556.02L434.081 541.382C434.188 539.94 433.924 538.495 433.315 537.187C432.706 535.878 431.772 534.751 430.603 533.914C429.692 533.432 428.672 533.2 427.644 533.242Z" fill="white"/>
</g>
<path opacity="0.7" d="M147 272.972L351.878 392.614L394.669 452.286L349.609 394.73L147 272.972Z" fill="white"/>
<path opacity="0.7" d="M576.585 346.261L394.669 452.286V596L398.072 455.173L576.585 346.261Z" fill="white"/>
<path d="M309.63 288.78C328.399 286.042 345.54 273.844 356.49 258.509C361.597 251.344 365.359 243.294 367.589 234.76C369.957 226.779 370.346 218.333 368.723 210.164C365.344 196.497 352.815 188.407 339.571 186.714C332.851 185.821 326.017 186.494 319.594 188.681C312.934 190.987 307.156 195.34 303.069 201.128C300.507 204.211 298.895 207.984 298.433 211.981C298.393 213.547 298.94 215.07 299.964 216.247C300.988 217.423 302.414 218.167 303.957 218.33C307.929 218.667 311.897 217.65 315.228 215.442C319.29 213.143 322.868 210.065 325.76 206.38C331.963 198.653 336.605 189.772 339.423 180.241C341.4 172.063 341.4 163.525 339.423 155.347C337.921 146.792 334.047 138.842 328.251 132.42C321.605 126.32 313.173 122.571 304.229 121.74C295.327 120.505 286.263 121.357 277.74 124.229C273.996 125.375 270.528 127.291 267.554 129.855C265.433 131.847 263.016 135.133 263.879 138.369C264.743 141.605 269.429 143.049 272.61 142.626C277.319 141.736 281.632 139.376 284.942 135.88C288.63 132.215 291.763 128.02 294.24 123.433C296.08 120.136 297.04 116.413 297.027 112.629C296.706 96.8457 279.417 86.639 265.877 83.7513C262.222 82.9805 258.478 82.7292 254.754 83.0045C253.496 83.0045 254.261 85.0956 255.272 85.0209C262.558 84.6867 269.799 86.3376 276.236 89.8006C282.586 92.7466 287.919 97.5404 291.552 103.567C293.17 106.538 293.969 109.894 293.865 113.283C293.761 116.672 292.758 119.971 290.96 122.835C288.545 127.081 285.538 130.954 282.032 134.336C279.097 137.025 274.633 140.137 270.514 139.838C269.834 139.836 269.168 139.642 268.592 139.276C268.017 138.911 267.554 138.39 267.258 137.772C267.134 136.954 267.201 136.119 267.453 135.332C267.706 134.546 268.138 133.829 268.713 133.241C270.891 130.874 273.585 129.05 276.581 127.914C283.98 124.809 291.992 123.48 299.986 124.03C308.225 124.181 316.237 126.778 323.022 131.498C328.932 136.452 333.13 143.173 335.008 150.692C337.388 158.33 338.128 166.392 337.179 174.341C335.714 182.34 332.669 189.96 328.226 196.746C323.663 204.364 317.941 211.683 309.358 214.67C307.237 215.442 302.798 216.562 301.96 213.45C301.121 210.338 303.538 206.505 305.092 204.09C308.528 198.632 313.537 194.366 319.446 191.867C325.148 189.56 331.303 188.623 337.425 189.129C349.042 190 360.831 196.124 364.876 207.774C366.905 214.737 367.125 222.11 365.517 229.183C364.066 236.937 361.304 244.381 357.353 251.19C348.854 265.657 335.983 276.991 320.63 283.528C316.979 285.121 313.231 286.465 309.408 287.71C309.013 287.859 309.186 288.855 309.63 288.78Z" fill="#E0E0E0"/>
<path d="M231.225 72.6485C221.36 71.9266 207.77 79.7682 212.604 85.4939C217.438 91.2196 230.263 81.9589 230.263 81.9589C230.263 81.9589 229.055 93.5347 233.247 94.8541C237.44 96.1735 243.113 85.1205 238.92 78.0505C240.942 78.8551 243.133 79.131 245.289 78.8524C247.444 78.5739 249.496 77.75 251.252 76.4573C257.22 72.0261 250.906 67.8439 242.496 68.5907C242.496 68.5907 248.514 48.6753 236.355 52.4841C230.263 54.3512 228.118 61.5457 231.225 72.6485Z" fill="#43649F"/>
<path opacity="0.65" d="M231.225 72.6485C221.36 71.9266 207.77 79.7682 212.604 85.4939C217.438 91.2196 230.263 81.9589 230.263 81.9589C230.263 81.9589 229.055 93.5347 233.247 94.8541C237.44 96.1735 243.113 85.1205 238.92 78.0505C240.942 78.8551 243.133 79.131 245.289 78.8524C247.444 78.5739 249.496 77.75 251.252 76.4573C257.22 72.0261 250.906 67.8439 242.496 68.5907C242.496 68.5907 248.514 48.6753 236.355 52.4841C230.263 54.3512 228.118 61.5457 231.225 72.6485Z" fill="white"/>
<path d="M240.4 76.8805C239.854 76.341 239.278 75.834 238.673 75.3619C237.81 74.6898 236.898 74.0426 236.034 73.3953C235.194 72.7785 234.312 72.2211 233.395 71.7274C232.868 71.4318 232.324 71.1659 231.768 70.9308C230.999 70.5665 230.144 70.4284 229.301 70.5324C229.081 70.5387 228.865 70.6048 228.678 70.7238C228.492 70.8427 228.34 71.0102 228.239 71.2087C228.138 71.4072 228.092 71.6293 228.105 71.852C228.119 72.0746 228.191 72.2895 228.315 72.4742C228.993 73.2156 229.839 73.7794 230.781 74.1172L232.113 74.8391C233.026 75.3868 233.839 76.0092 234.579 76.6315C235.319 77.2539 236.306 77.8514 237.046 78.4737C238.318 79.5152 239.74 80.3546 241.263 80.9631C241.331 81.0002 241.408 81.0196 241.485 81.0196C241.563 81.0196 241.639 81.0002 241.707 80.9631C242.965 79.9674 241.115 77.6024 240.4 76.8805Z" fill="#455A64"/>
</svg>
